<?xml version="1.0" encoding="iso-8859-1"?>
<!-- Generator: Adobe Illustrator 19.0.0, SVG Export Plug-In . SVG Version: 6.00 Build 0)  -->
<svg version="1.1" id="Capa_1" xmlns="http://www.w3.org/2000/svg" xmlns:xlink="http://www.w3.org/1999/xlink" x="0px" y="0px"
	 viewBox="0 0 512 512" style="enable-background:new 0 0 512 512;" xml:space="preserve">
<g>
	<g>
		<path d="M392.19,373.08c-0.47-0.46-0.98-0.88-1.52-1.25c-0.55-0.36-1.13-0.67-1.73-0.92c-0.6-0.25-1.23-0.44-1.87-0.57
			c-3.25-0.66-6.7,0.41-9.03,2.74c-0.46,0.46-0.88,0.97-1.24,1.52c-0.36,0.54-0.67,1.12-0.92,1.72c-0.25,0.61-0.44,1.24-0.57,1.87
			c-0.13,0.65-0.19,1.31-0.19,1.96c0,2.63,1.06,5.21,2.92,7.07c1.86,1.86,4.44,2.929,7.08,2.929c2.63,0,5.2-1.069,7.07-2.93
			c1.86-1.86,2.92-4.44,2.92-7.07S394.05,374.939,392.19,373.08z"/>
	</g>
</g>
<g>
	<g>
		<path d="M476.008,422.668V89.332C496.527,85.095,512,66.887,512,45.132C512,20.246,491.754,0,466.868,0
			c-21.756,0-39.964,15.473-44.201,35.992H89.333C85.096,15.473,66.887,0,45.132,0C20.246,0,0,20.246,0,45.132
			c0,21.755,15.473,39.963,35.992,44.2v333.335C15.473,426.905,0,445.113,0,466.868C0,491.754,20.246,512,45.132,512
			c21.756,0,39.964-15.473,44.201-35.992h333.334C426.904,496.527,445.112,512,466.868,512C491.754,512,512,491.754,512,466.868
			C512,445.113,496.527,426.905,476.008,422.668z M466.868,20C480.726,20,492,31.274,492,45.132
			c0,13.857-11.274,25.132-25.132,25.132c-0.337,0-0.67-0.012-1.004-0.025c-0.176-0.007-0.353-0.015-0.528-0.026
			c-0.26-0.016-0.519-0.036-0.776-0.059c-0.148-0.013-0.296-0.027-0.444-0.043c-0.295-0.032-0.588-0.07-0.88-0.112
			c-0.103-0.015-0.206-0.029-0.308-0.045c-0.349-0.055-0.697-0.117-1.041-0.187c-0.04-0.008-0.08-0.015-0.12-0.023
			c-9.764-2.021-17.473-9.723-19.505-19.483c-0.014-0.067-0.026-0.134-0.04-0.201c-0.063-0.317-0.12-0.635-0.171-0.956
			c-0.021-0.13-0.039-0.26-0.058-0.391c-0.038-0.264-0.072-0.529-0.101-0.795c-0.019-0.174-0.036-0.35-0.051-0.525
			c-0.021-0.23-0.039-0.461-0.053-0.693c-0.012-0.202-0.022-0.404-0.03-0.607c-0.012-0.319-0.024-0.638-0.024-0.96
			C441.736,31.274,453.01,20,466.868,20z M20,45.132C20,31.274,31.274,20,45.132,20c13.858,0,25.132,11.274,25.132,25.132
			c0,0.322-0.012,0.641-0.024,0.96c-0.008,0.203-0.017,0.405-0.03,0.607c-0.014,0.232-0.032,0.463-0.053,0.693
			c-0.016,0.175-0.032,0.351-0.051,0.525c-0.03,0.266-0.063,0.531-0.101,0.795c-0.019,0.131-0.037,0.261-0.057,0.391
			c-0.051,0.321-0.108,0.639-0.171,0.956c-0.013,0.067-0.026,0.134-0.04,0.201c-2.032,9.76-9.741,17.462-19.505,19.483
			c-0.04,0.008-0.08,0.015-0.119,0.023c-0.344,0.07-0.692,0.131-1.041,0.187c-0.102,0.016-0.205,0.03-0.308,0.045
			c-0.292,0.042-0.585,0.08-0.88,0.112c-0.148,0.016-0.296,0.03-0.444,0.043c-0.258,0.024-0.516,0.044-0.776,0.059
			c-0.175,0.01-0.352,0.019-0.528,0.026c-0.333,0.013-0.667,0.025-1.004,0.025C31.274,70.264,20,58.989,20,45.132z M45.132,492
			C31.274,492,20,480.726,20,466.868c0-13.857,11.274-25.132,25.132-25.132c0.337,0,0.67,0.012,1.004,0.025
			c0.176,0.007,0.353,0.015,0.528,0.026c0.26,0.016,0.519,0.036,0.776,0.059c0.148,0.013,0.296,0.027,0.444,0.043
			c0.295,0.032,0.588,0.07,0.88,0.112c0.103,0.015,0.206,0.029,0.308,0.045c0.349,0.055,0.696,0.117,1.041,0.186
			c0.04,0.008,0.08,0.015,0.119,0.023c9.764,2.021,17.473,9.723,19.505,19.483c0.014,0.067,0.026,0.134,0.04,0.201
			c0.063,0.317,0.12,0.635,0.171,0.956c0.021,0.13,0.039,0.26,0.057,0.391c0.038,0.264,0.072,0.529,0.101,0.795
			c0.019,0.174,0.036,0.35,0.051,0.525c0.021,0.23,0.038,0.461,0.053,0.693c0.012,0.202,0.022,0.404,0.03,0.607
			c0.012,0.319,0.024,0.638,0.024,0.96C70.264,480.726,58.99,492,45.132,492z M424.549,451.188c-0.06,0.161-0.116,0.323-0.174,0.485
			c-0.373,1.047-0.709,2.111-1.006,3.193c-0.07,0.253-0.149,0.502-0.215,0.757c-0.033,0.13-0.077,0.255-0.109,0.385H88.953
			c-0.03-0.121-0.07-0.236-0.101-0.357c-0.157-0.613-0.333-1.219-0.516-1.821c-0.211-0.703-0.443-1.395-0.686-2.083
			c-0.072-0.201-0.142-0.403-0.216-0.602c-4.56-12.303-14.306-22.041-26.613-26.592c-0.168-0.062-0.337-0.121-0.506-0.182
			c-1.021-0.363-2.057-0.691-3.11-0.982c-0.277-0.077-0.549-0.163-0.828-0.235c-0.129-0.033-0.254-0.077-0.384-0.109V88.954
			c0.13-0.032,0.255-0.076,0.384-0.109c0.279-0.072,0.552-0.158,0.828-0.235c1.053-0.291,2.09-0.618,3.11-0.982
			c0.169-0.061,0.338-0.12,0.506-0.182c12.307-4.55,22.053-14.289,26.613-26.592c0.075-0.2,0.145-0.401,0.216-0.602
			c0.244-0.688,0.475-1.38,0.686-2.083c0.182-0.603,0.358-1.208,0.516-1.821c0.031-0.12,0.071-0.236,0.101-0.357h334.094
			c0.03,0.121,0.07,0.236,0.101,0.357c0.157,0.613,0.334,1.219,0.516,1.821c0.211,0.703,0.443,1.395,0.686,2.083
			c0.072,0.201,0.142,0.403,0.216,0.602c4.56,12.303,14.306,22.041,26.613,26.592c0.168,0.062,0.337,0.121,0.506,0.182
			c1.021,0.364,2.057,0.691,3.11,0.982c0.276,0.077,0.549,0.163,0.828,0.235c0.129,0.033,0.254,0.077,0.384,0.109v334.088
			c-1.537,0.378-3.031,0.859-4.501,1.39c-0.073,0.026-0.148,0.053-0.223,0.08C438.912,429.052,429.115,438.829,424.549,451.188z
			 M466.868,492c-13.858,0-25.132-11.274-25.132-25.132c0-0.336,0.012-0.67,0.025-1.003c0.007-0.177,0.015-0.353,0.026-0.529
			c0.016-0.26,0.036-0.518,0.059-0.775c0.013-0.148,0.027-0.297,0.043-0.444c0.032-0.295,0.07-0.589,0.112-0.882
			c0.015-0.102,0.029-0.204,0.045-0.305c0.056-0.352,0.118-0.701,0.188-1.048c0.007-0.037,0.014-0.074,0.022-0.11
			c2.19-10.588,11.061-18.761,21.992-19.898c0.043-0.005,0.087-0.009,0.13-0.013c0.364-0.036,0.731-0.064,1.1-0.084
			c0.073-0.004,0.145-0.007,0.218-0.01c0.389-0.018,0.779-0.03,1.172-0.03c13.858,0,25.132,11.274,25.132,25.132
			C492,480.726,480.726,492,466.868,492z"/>
	</g>
</g>
<g>
	<g>
		<path d="M421.635,80.365H90.365c-5.523,0-10,4.478-10,10v331.27c0,5.522,4.477,10,10,10h331.27c5.523,0,10-4.478,10-10V90.365
			C431.635,84.843,427.158,80.365,421.635,80.365z M411.635,411.635h-311.27v-21.487h246.082c5.523,0,10-4.478,10-10
			c0-5.522-4.477-10-10-10h-28.565v-20.883c0-5.522-4.477-10-10-10h-10.434V185.088H325.4l30.814,11.702
			c3.073,1.167,6.523,0.75,9.229-1.117s4.321-4.944,4.321-8.231v-55.589c0-5.522-4.477-10-10-10H152.235c-5.523,0-10,4.478-10,10
			v55.589c0,3.287,1.616,6.364,4.321,8.231c2.705,1.865,6.154,2.283,9.229,1.117l30.814-11.702h27.953v154.177h-10.434
			c-5.523,0-10,4.478-10,10v20.883h-93.753V100.365h311.27V411.635z M224.552,165.088h-39.788c-1.213,0-2.416,0.221-3.55,0.651
			l-18.979,7.208v-31.095h187.529v31.095l-18.979-7.208c-1.134-0.431-2.337-0.651-3.55-0.651h-39.788c-5.523,0-10,4.477-10,10
			v174.177c0,5.523,4.477,10,10,10h10.434v10.883h-83.765v-10.883h10.434c5.523,0,10-4.477,10-10V175.088
			C234.552,169.565,230.075,165.088,224.552,165.088z"/>
	</g>
</g>
<g>
</g>
<g>
</g>
<g>
</g>
<g>
</g>
<g>
</g>
<g>
</g>
<g>
</g>
<g>
</g>
<g>
</g>
<g>
</g>
<g>
</g>
<g>
</g>
<g>
</g>
<g>
</g>
<g>
</g>
</svg>
